<svg width="36" height="51" viewBox="0 0 36 51" fill="none" xmlns="http://www.w3.org/2000/svg">
<g clip-path="url(#clip0_1_651)">
<path d="M31.1953 34.3422V23.8669L26.4375 21.0672V11.8518L19.1953 7.44236V0H16.8047V7.44236L9.5625 11.8518V21.0439L4.80469 23.8435V34.3188L0 37.1885V51H2.39062V38.5416L18 29.2562L33.6094 38.5416V51H36V37.1885L31.1953 34.3422ZM11.9531 13.1816L18 9.49543L24.0469 13.1816V19.6441L18 16.0746L11.9531 19.6441V13.1816ZM28.8047 32.919L26.4375 31.4959V26.8998L24.0469 25.5V30.0961L18 26.5032L11.9531 30.0961V25.5L9.5625 26.8998V31.4959L7.19531 32.919V25.1967L18 18.8275L28.8047 25.1967V32.919Z" fill="#251D58"/>
<path d="M31.1956 34.3422V23.8669L26.4377 21.0439V11.8518L19.1956 7.44236V0H18.0002V9.49543L24.0471 13.1816V19.6441L18.0002 16.0746V18.8275L28.8049 25.22V32.919L26.4377 31.4959V26.8998L24.0471 25.5V30.0961L18.0002 26.5032V29.2562L33.6096 38.5416V51H36.0002V37.1885L31.1956 34.3422Z" fill="#251D58"/>
<path d="M4.80469 51H7.19531V38.6116L4.80469 40.0114V51Z" fill="#251D58"/>
<path d="M14.4607 41.9712V51H16.8513V43.2077L17.9998 42.3911L19.1482 43.2077V51H21.5154V41.9712L17.9998 39.4982L14.4607 41.9712Z" fill="#251D58"/>
<path d="M24.0469 50.9999H26.4375V37.1884L24.0469 35.7653V50.9999Z" fill="#251D58"/>
<path d="M9.56274 50.9999H11.9534V35.7653L9.56274 37.1884V50.9999Z" fill="#251D58"/>
<path d="M28.8047 51H31.1953V40.0114L28.8047 38.6116V51Z" fill="#251D58"/>
<path d="M19.1487 51H21.5159V41.9712L18.0002 39.4982V42.3911L19.1487 43.2077V51Z" fill="#251D58"/>
<path d="M24.0469 50.9999H26.4375V37.1884L24.0469 35.7653V50.9999Z" fill="#251D58"/>
<path d="M28.8047 51H31.1953V40.0114L28.8047 38.6116V51Z" fill="#251D58"/>
</g>
<defs>
<clipPath id="clip0_1_651">
<rect width="36" height="51" fill="white"/>
</clipPath>
</defs>
</svg>
